<svg xmlns="http://www.w3.org/2000/svg" viewBox="0 0 1000 650" role="img" aria-labelledby="title"><title id="title">MR. SATAN</title><defs><filter id="g"><feGaussianBlur stdDeviation="12" result="b"/><feMerge><feMergeNode in="b"/><feMergeNode in="SourceGraphic"/></feMerge></filter><linearGradient id="lime" x1="0" y1="0" x2="0" y2="1"><stop stop-color="#d8ff3f"/><stop offset=".55" stop-color="#9ee71a"/><stop offset="1" stop-color="#61a800"/></linearGradient></defs><rect width="1000" height="650" fill="transparent"/><g filter="url(#g)" opacity=".75" fill="none" stroke="#7d18d8" stroke-width="24"><path d="M110 490C40 390 70 170 150 130c85-43 93 156 157 111 64-45 34-154 118-135 84 19 26 181 104 186 78 5 58-144 142-146 84-2 77 174 132 151 55-23 39-149 107-118 68 31 37 194 3 308"/></g><text x="50%" y="390" text-anchor="middle" fill="url(#lime)" stroke="#321047" stroke-width="9" paint-order="stroke" font-family="Impact, Haettenschweiler, 'Arial Narrow Bold', sans-serif" font-size="220" letter-spacing="-8">MR. SATAN</text><g fill="#9ee71a" stroke="#321047" stroke-width="5"><path d="M135 380l-18 115 28-44 8 77 26-141z"/><path d="M305 385l-12 128 28-50 11 61 21-130z"/><path d="M487 390l-9 118 20-38 10 64 20-136z"/><path d="M684 389l-7 104 18-39 10 72 18-136z"/><path d="M846 382l-5 109 20-42 8 80 17-139z"/></g><path d="M905 394c45 46 44 114 8 145 25-3 47-14 65-32-9 28-35 48-66 54l6 31-42-30 31-45 1 25c25-29 28-80-3-116z" fill="#9ee71a" stroke="#321047" stroke-width="7"/></svg>